<svg width="164" height="164" viewBox="0 0 164 164" fill="none" xmlns="http://www.w3.org/2000/svg">
<rect width="164" height="164" fill="black"/>
<path d="M47.9516 120.006C42.8741 120.006 38.3475 119.072 34.3717 117.204C30.4199 115.336 27.2824 112.761 24.9592 109.48C22.636 106.199 21.4266 102.438 21.3308 98.1991H36.4195C36.5871 101.049 37.7846 103.36 40.012 105.133C42.2394 106.905 44.8859 107.791 47.9516 107.791C50.3945 107.791 52.55 107.252 54.4182 106.175C56.3102 105.073 57.7832 103.552 58.837 101.612C59.9148 99.6481 60.4536 97.3968 60.4536 94.858C60.4536 92.2714 59.9028 89.9961 58.8011 88.0322C57.7233 86.0683 56.2264 84.5354 54.3104 83.4337C52.3944 82.332 50.2029 81.7692 47.736 81.7452C45.5805 81.7452 43.4848 82.1883 41.449 83.0745C39.4372 83.9606 37.8685 85.1701 36.7428 86.703L22.9115 84.2241L26.3963 45.4245H71.375V58.1422H39.2217L37.3176 76.572H37.7487C39.042 74.7517 40.994 73.2429 43.6046 72.0453C46.2152 70.8478 49.1371 70.2491 52.3704 70.2491C56.8012 70.2491 60.753 71.2909 64.2258 73.3746C67.6986 75.4583 70.4409 78.3203 72.4528 81.9608C74.4646 85.5773 75.4585 89.7447 75.4346 94.4629C75.4585 99.4206 74.3089 103.827 71.9857 107.683C69.6865 111.516 66.4652 114.533 62.3218 116.737C58.2023 118.916 53.4122 120.006 47.9516 120.006ZM85.1704 106.067V93.8162L115.887 45.4245H126.449V62.3814H120.198L100.834 93.0258V93.6007H144.483V106.067H85.1704ZM120.485 119V102.331L120.773 96.9058V45.4245H135.358V119H120.485Z" fill="white"/>
</svg>
