<svg width="57" height="53" viewBox="0 0 57 53" fill="none" xmlns="http://www.w3.org/2000/svg">
<path d="M53.8499 18.0609L37.3826 17.3593L31.5829 2.81539C31.1003 1.60533 29.8728 0.802734 28.4972 0.802734C27.1281 0.802734 25.8986 1.60533 25.414 2.81539L19.6163 17.3593L3.14485 18.0609C1.77577 18.1185 0.585771 18.9726 0.16198 20.2028C-0.263891 21.4333 0.168808 22.7833 1.23883 23.5898L14.1266 33.2795L9.74407 48.2574C9.38175 49.5044 9.87296 50.8337 10.9846 51.5951C12.0982 52.3546 13.5918 52.3854 14.7384 51.6732L28.4978 43.1175L42.2617 51.6732C43.4081 52.3851 44.9016 52.3544 46.0132 51.5951C47.1248 50.834 47.616 49.5044 47.2534 48.2574L42.8729 33.2795L55.7589 23.5898C56.8334 22.7833 57.2637 21.4333 56.8375 20.2028C56.4134 18.9726 55.2211 18.1185 53.8499 18.0609Z" fill="#FFC700"/>
</svg>
