<svg width="69" height="57" viewBox="0 0 69 57" fill="none" xmlns="http://www.w3.org/2000/svg">
<path d="M0.585914 20.8809C1.36713 23.6745 2.86064 26.1028 5.06643 28.1658L34.5 56.6609L63.9336 28.1658C66.1394 26.1028 67.6329 23.6745 68.4141 20.8809C69.1953 18.0872 69.1953 15.3151 68.4141 12.5644C67.6329 9.81378 66.1394 7.40696 63.9336 5.34397C61.7278 3.28097 59.1544 1.88416 56.2133 1.15351C53.2722 0.422869 50.2852 0.422869 47.2523 1.15351C44.2193 1.88416 41.6459 3.28097 39.532 5.34397L34.5 11.0172L29.468 5.34397C27.2622 3.28097 24.6888 1.88416 21.7478 1.15351C18.8067 0.422869 15.8427 0.422869 12.8556 1.15351C9.86863 1.88416 7.27223 3.28097 5.06643 5.34397C2.86064 7.40696 1.36713 9.81378 0.585914 12.5644C-0.195305 15.3151 -0.195305 18.0872 0.585914 20.8809Z" fill="#00C2FF"/>
</svg>
