<svg width="164" height="187" viewBox="0 0 164 187" fill="none" xmlns="http://www.w3.org/2000/svg">
<rect width="164" height="186.92" fill="black"/>
<path d="M47.9516 99.0059C42.8741 99.0059 38.3475 98.0719 34.3717 96.2037C30.4199 94.3356 27.2824 91.7609 24.9592 88.4797C22.636 85.1985 21.4266 81.4383 21.3308 77.1991H36.4195C36.5871 80.0492 37.7846 82.3604 40.012 84.1327C42.2394 85.9051 44.8859 86.7912 47.9516 86.7912C50.3945 86.7912 52.55 86.2524 54.4182 85.1746C56.3102 84.0729 57.7832 82.552 58.837 80.612C59.9148 78.6481 60.4536 76.3968 60.4536 73.858C60.4536 71.2714 59.9028 68.9961 58.8011 67.0322C57.7233 65.0683 56.2264 63.5354 54.3104 62.4337C52.3944 61.332 50.2029 60.7692 47.736 60.7452C45.5805 60.7452 43.4848 61.1883 41.449 62.0745C39.4372 62.9606 37.8685 64.1701 36.7428 65.703L22.9115 63.2241L26.3963 24.4245H71.375V37.1422H39.2217L37.3176 55.572H37.7487C39.042 53.7517 40.994 52.2429 43.6046 51.0453C46.2152 49.8478 49.1371 49.2491 52.3704 49.2491C56.8012 49.2491 60.753 50.2909 64.2258 52.3746C67.6986 54.4583 70.4409 57.3203 72.4528 60.9608C74.4646 64.5773 75.4585 68.7447 75.4346 73.4629C75.4585 78.4206 74.3089 82.8275 71.9857 86.6835C69.6865 90.5155 66.4652 93.5333 62.3218 95.7367C58.2023 97.9162 53.4122 99.0059 47.9516 99.0059ZM85.1704 85.0668V72.8162L115.887 24.4245H126.449V41.3814H120.198L100.834 72.0258V72.6007H144.483V85.0668H85.1704ZM120.485 98V81.3306L120.773 75.9058V24.4245H135.358V98H120.485Z" fill="white"/>
<path d="M31.4281 171.506H18.3871V134.718H31.5358C35.2362 134.718 38.4216 135.455 41.092 136.928C43.7625 138.389 45.8162 140.49 47.2533 143.232C48.7023 145.975 49.4268 149.256 49.4268 153.076C49.4268 156.908 48.7023 160.201 47.2533 162.956C45.8162 165.71 43.7505 167.823 41.0561 169.296C38.3737 170.769 35.1643 171.506 31.4281 171.506ZM26.165 164.842H31.1047C33.404 164.842 35.338 164.435 36.9067 163.62C38.4874 162.794 39.673 161.519 40.4633 159.794C41.2657 158.058 41.6668 155.818 41.6668 153.076C41.6668 150.358 41.2657 148.136 40.4633 146.412C39.673 144.687 38.4934 143.418 36.9247 142.604C35.3559 141.789 33.4219 141.382 31.1227 141.382H26.165V164.842ZM59.4545 171.506H51.1197L63.8194 134.718H73.8426L86.5243 171.506H78.1896L68.9747 143.125H68.6873L59.4545 171.506ZM58.9335 157.046H78.6207V163.117H58.9335V157.046ZM85.0559 141.131V134.718H115.269V141.131H104.007V171.506H96.3185V141.131H85.0559ZM120.245 171.506V134.718H145.034V141.131H128.023V149.897H143.758V156.309H128.023V165.093H145.105V171.506H120.245Z" fill="white"/>
</svg>
