<svg width="51" height="37" viewBox="0 0 51 37" fill="none" xmlns="http://www.w3.org/2000/svg">
<path fill-rule="evenodd" clip-rule="evenodd" d="M50.25 2.96194C50.25 3.64333 49.9603 4.29682 49.4445 4.77864C48.9288 5.26046 48.2294 5.53114 47.5 5.53114H3.5C2.77065 5.53114 2.07118 5.26046 1.55546 4.77864C1.03973 4.29682 0.75 3.64333 0.75 2.96194C0.75 2.28054 1.03973 1.62705 1.55546 1.14523C2.07118 0.663414 2.77065 0.392731 3.5 0.392731H47.5C48.2294 0.392731 48.9288 0.663414 49.4445 1.14523C49.9603 1.62705 50.25 2.28054 50.25 2.96194ZM50.25 18.3772C50.25 19.0586 49.9603 19.712 49.4445 20.1939C48.9288 20.6757 48.2294 20.9464 47.5 20.9464H3.5C2.77065 20.9464 2.07118 20.6757 1.55546 20.1939C1.03973 19.712 0.75 19.0586 0.75 18.3772C0.75 17.6958 1.03973 17.0423 1.55546 16.5605C2.07118 16.0786 2.77065 15.808 3.5 15.808H47.5C48.2294 15.808 48.9288 16.0786 49.4445 16.5605C49.9603 17.0423 50.25 17.6958 50.25 18.3772ZM47.5 36.3616C48.2294 36.3616 48.9288 36.0909 49.4445 35.6091C49.9603 35.1273 50.25 34.4738 50.25 33.7924C50.25 33.111 49.9603 32.4575 49.4445 31.9757C48.9288 31.4939 48.2294 31.2232 47.5 31.2232H3.5C2.77065 31.2232 2.07118 31.4939 1.55546 31.9757C1.03973 32.4575 0.75 33.111 0.75 33.7924C0.75 34.4738 1.03973 35.1273 1.55546 35.6091C2.07118 36.0909 2.77065 36.3616 3.5 36.3616H47.5Z" fill="white"/>
</svg>
