<svg width="63" height="59" viewBox="0 0 63 59" fill="none" xmlns="http://www.w3.org/2000/svg">
<path fill-rule="evenodd" clip-rule="evenodd" d="M53.1464 29.251C53.1464 32.5028 50.3273 35.1365 46.8467 35.1365C43.3662 35.1365 40.5471 32.5028 40.5471 29.251C40.5471 25.9993 43.3662 23.3655 46.8467 23.3655C50.3273 23.3655 53.1464 25.9993 53.1464 29.251ZM37.3972 29.251C37.3972 32.5028 34.5781 35.1365 31.0976 35.1365C27.617 35.1365 24.7979 32.5028 24.7979 29.251C24.7979 25.9993 27.617 23.3655 31.0976 23.3655C34.5781 23.3655 37.3972 25.9993 37.3972 29.251ZM21.648 29.251C21.648 32.5028 18.8289 35.1365 15.3484 35.1365C11.8678 35.1365 9.04868 32.5028 9.04868 29.251C9.04868 25.9993 11.8678 23.3655 15.3484 23.3655C18.8289 23.3655 21.648 25.9993 21.648 29.251ZM54.9387 52.9696C54.9387 52.9696 46.6987 50.7832 41.0069 50.7832C36.3641 50.7832 35.3057 51.5512 31.3653 51.5512C18.5139 51.5512 8.13199 42.6936 6.53817 31.9319C4.42148 17.6477 16.5957 5.88257 31.3653 5.88551C43.7851 5.88551 53.5559 13.8398 55.8552 23.7863C56.6994 27.4206 56.6143 31.0285 55.6095 34.5068C54.4126 38.6414 54.4662 43.2909 55.7639 47.9493C56.4285 50.33 57.6507 52.9696 54.9387 52.9696ZM62.7376 49.612C62.7376 49.612 61.8652 46.4778 61.862 46.4661C60.9076 43.0525 60.7028 39.4476 61.6887 36.0428C62.9046 31.8465 63.1093 27.2734 62.0131 22.5414C59.1153 10.02 46.8121 4.30323e-07 31.3653 4.30323e-07C12.5985 -0.00294233 -2.31599 15.0875 0.298377 32.7382C2.32057 46.3955 15.342 57.4367 31.3653 57.4367C35.9924 57.4367 36.9247 56.6687 41.01 56.6687C45.9364 56.6687 52.9038 58.6168 52.9038 58.6168C58.8507 60.0087 64.2559 55.059 62.7376 49.612Z" fill="#FFFFFF"/>
</svg>
